<svg width="287" height="173" viewBox="0 0 287 173" fill="none" xmlns="http://www.w3.org/2000/svg">
<g filter="url(#filter0_d_26_128)">
<rect x="62.4" y="58.3999" width="162" height="48" rx="14" fill="#131313"/>
</g>
<path d="M122.658 79.3999V69.5356H126.042C127.017 69.5356 127.851 69.7316 128.544 70.1235C129.241 70.5109 129.774 71.0715 130.143 71.8052C130.512 72.5389 130.697 73.423 130.697 74.4575V74.4712C130.697 75.5057 130.512 76.3921 130.143 77.1304C129.774 77.8641 129.243 78.4269 128.55 78.8188C127.858 79.2062 127.021 79.3999 126.042 79.3999H122.658ZM123.888 78.2925H125.96C126.693 78.2925 127.32 78.1421 127.839 77.8413C128.359 77.5405 128.755 77.1053 129.029 76.5356C129.302 75.966 129.439 75.2824 129.439 74.4849V74.4712C129.439 73.6691 129.3 72.9832 129.022 72.4136C128.749 71.8394 128.352 71.4019 127.833 71.1011C127.313 70.7957 126.689 70.6431 125.96 70.6431H123.888V78.2925ZM135.708 79.5298C135.01 79.5298 134.407 79.3771 133.896 79.0718C133.39 78.7619 132.998 78.3221 132.72 77.7524C132.447 77.1828 132.31 76.506 132.31 75.7222V75.7085C132.31 74.9201 132.447 74.241 132.72 73.6714C132.998 73.1017 133.39 72.6642 133.896 72.3589C134.407 72.0535 135.01 71.9009 135.708 71.9009C136.409 71.9009 137.013 72.0535 137.519 72.3589C138.025 72.6642 138.415 73.1017 138.688 73.6714C138.966 74.241 139.105 74.9201 139.105 75.7085V75.7222C139.105 76.506 138.966 77.1828 138.688 77.7524C138.415 78.3221 138.025 78.7619 137.519 79.0718C137.013 79.3771 136.409 79.5298 135.708 79.5298ZM135.708 78.4771C136.172 78.4771 136.567 78.3677 136.89 78.1489C137.214 77.9302 137.46 77.6157 137.629 77.2056C137.802 76.7954 137.888 76.3009 137.888 75.7222V75.7085C137.888 75.1252 137.802 74.6284 137.629 74.2183C137.46 73.8081 137.214 73.4959 136.89 73.2817C136.567 73.063 136.172 72.9536 135.708 72.9536C135.243 72.9536 134.849 73.063 134.525 73.2817C134.201 73.4959 133.953 73.8081 133.78 74.2183C133.611 74.6284 133.527 75.1252 133.527 75.7085V75.7222C133.527 76.3009 133.611 76.7954 133.78 77.2056C133.953 77.6157 134.201 77.9302 134.525 78.1489C134.849 78.3677 135.243 78.4771 135.708 78.4771ZM142.099 79.3999L140.035 72.0308H141.224L142.673 77.9233H142.783L144.43 72.0308H145.558L147.206 77.9233H147.315L148.764 72.0308H149.947L147.882 79.3999H146.686L145.039 73.6987H144.929L143.289 79.3999H142.099ZM151.519 79.3999V72.0308H152.709V73.1382H152.818C153.005 72.7463 153.274 72.4432 153.625 72.229C153.976 72.0103 154.422 71.9009 154.964 71.9009C155.794 71.9009 156.43 72.1379 156.872 72.6118C157.318 73.0812 157.542 73.7534 157.542 74.6284V79.3999H156.352V74.9155C156.352 74.2502 156.211 73.758 155.928 73.439C155.65 73.1154 155.217 72.9536 154.63 72.9536C154.238 72.9536 153.898 73.0379 153.611 73.2065C153.324 73.3752 153.101 73.6144 152.941 73.9243C152.786 74.2342 152.709 74.6056 152.709 75.0386V79.3999H151.519ZM159.763 79.3999V69.105H160.953V79.3999H159.763ZM166.264 79.5298C165.567 79.5298 164.963 79.3771 164.453 79.0718C163.947 78.7619 163.555 78.3221 163.277 77.7524C163.004 77.1828 162.867 76.506 162.867 75.7222V75.7085C162.867 74.9201 163.004 74.241 163.277 73.6714C163.555 73.1017 163.947 72.6642 164.453 72.3589C164.963 72.0535 165.567 71.9009 166.264 71.9009C166.966 71.9009 167.57 72.0535 168.076 72.3589C168.582 72.6642 168.971 73.1017 169.245 73.6714C169.523 74.241 169.662 74.9201 169.662 75.7085V75.7222C169.662 76.506 169.523 77.1828 169.245 77.7524C168.971 78.3221 168.582 78.7619 168.076 79.0718C167.57 79.3771 166.966 79.5298 166.264 79.5298ZM166.264 78.4771C166.729 78.4771 167.123 78.3677 167.447 78.1489C167.77 77.9302 168.017 77.6157 168.185 77.2056C168.358 76.7954 168.445 76.3009 168.445 75.7222V75.7085C168.445 75.1252 168.358 74.6284 168.185 74.2183C168.017 73.8081 167.77 73.4959 167.447 73.2817C167.123 73.063 166.729 72.9536 166.264 72.9536C165.799 72.9536 165.405 73.063 165.082 73.2817C164.758 73.4959 164.51 73.8081 164.337 74.2183C164.168 74.6284 164.084 75.1252 164.084 75.7085V75.7222C164.084 76.3009 164.168 76.7954 164.337 77.2056C164.51 77.6157 164.758 77.9302 165.082 78.1489C165.405 78.3677 165.799 78.4771 166.264 78.4771ZM173.531 79.5298C173.066 79.5298 172.647 79.4409 172.273 79.2632C171.904 79.0854 171.61 78.8325 171.391 78.5044C171.177 78.1763 171.07 77.7889 171.07 77.3423V77.3286C171.07 76.8911 171.175 76.5174 171.384 76.2075C171.594 75.8931 171.899 75.647 172.3 75.4692C172.701 75.2915 173.187 75.1867 173.756 75.1548L176.464 74.9907V75.9409L173.9 76.105C173.339 76.1369 172.929 76.2531 172.67 76.4536C172.414 76.6541 172.287 76.9367 172.287 77.3013V77.3149C172.287 77.6886 172.428 77.9803 172.711 78.1899C172.993 78.395 173.349 78.4976 173.777 78.4976C174.183 78.4976 174.543 78.4178 174.857 78.2583C175.172 78.0942 175.418 77.8732 175.595 77.5952C175.778 77.3172 175.869 77.0028 175.869 76.6519V74.355C175.869 73.8993 175.73 73.5529 175.452 73.3159C175.178 73.0744 174.766 72.9536 174.214 72.9536C173.772 72.9536 173.41 73.0334 173.128 73.1929C172.845 73.3478 172.656 73.5688 172.56 73.856L172.553 73.8765H171.364L171.371 73.8354C171.435 73.4481 171.594 73.1108 171.849 72.8237C172.109 72.5321 172.444 72.3065 172.854 72.147C173.264 71.9829 173.731 71.9009 174.255 71.9009C174.857 71.9009 175.365 71.9989 175.78 72.1948C176.199 72.3908 176.516 72.6733 176.73 73.0425C176.949 73.4071 177.058 73.8446 177.058 74.355V79.3999H175.869V78.313H175.759C175.604 78.5728 175.415 78.7938 175.192 78.9761C174.973 79.1584 174.725 79.2974 174.447 79.3931C174.169 79.4842 173.864 79.5298 173.531 79.5298ZM181.953 79.5298C181.333 79.5298 180.791 79.3726 180.326 79.0581C179.861 78.7437 179.501 78.3016 179.246 77.7319C178.991 77.1577 178.863 76.4878 178.863 75.7222V75.7085C178.863 74.9383 178.991 74.2684 179.246 73.6987C179.501 73.1291 179.859 72.687 180.319 72.3726C180.784 72.0581 181.328 71.9009 181.953 71.9009C182.29 71.9009 182.607 71.9556 182.903 72.0649C183.204 72.1698 183.47 72.3179 183.703 72.5093C183.935 72.7007 184.117 72.9285 184.25 73.1929H184.359V69.105H185.548V79.3999H184.359V78.2241H184.25C184.099 78.4976 183.91 78.7323 183.682 78.9282C183.454 79.1196 183.195 79.2677 182.903 79.3726C182.611 79.4774 182.295 79.5298 181.953 79.5298ZM182.226 78.4771C182.673 78.4771 183.058 78.3654 183.381 78.1421C183.705 77.9188 183.953 77.6021 184.127 77.1919C184.3 76.7772 184.386 76.2873 184.386 75.7222V75.7085C184.386 75.1388 184.3 74.6489 184.127 74.2388C183.953 73.8286 183.705 73.5119 183.381 73.2886C183.058 73.0653 182.673 72.9536 182.226 72.9536C181.78 72.9536 181.394 73.0653 181.071 73.2886C180.752 73.5073 180.506 73.8218 180.333 74.2319C180.164 74.6421 180.08 75.1343 180.08 75.7085V75.7222C180.08 76.2918 180.164 76.784 180.333 77.1987C180.506 77.6089 180.752 77.9256 181.071 78.1489C181.394 78.3677 181.78 78.4771 182.226 78.4771ZM194.469 79.5298C193.772 79.5298 193.168 79.3771 192.658 79.0718C192.152 78.7619 191.76 78.3221 191.482 77.7524C191.209 77.1828 191.072 76.506 191.072 75.7222V75.7085C191.072 74.9201 191.209 74.241 191.482 73.6714C191.76 73.1017 192.152 72.6642 192.658 72.3589C193.168 72.0535 193.772 71.9009 194.469 71.9009C195.171 71.9009 195.775 72.0535 196.281 72.3589C196.787 72.6642 197.176 73.1017 197.45 73.6714C197.728 74.241 197.867 74.9201 197.867 75.7085V75.7222C197.867 76.506 197.728 77.1828 197.45 77.7524C197.176 78.3221 196.787 78.7619 196.281 79.0718C195.775 79.3771 195.171 79.5298 194.469 79.5298ZM194.469 78.4771C194.934 78.4771 195.328 78.3677 195.652 78.1489C195.976 77.9302 196.222 77.6157 196.39 77.2056C196.563 76.7954 196.65 76.3009 196.65 75.7222V75.7085C196.65 75.1252 196.563 74.6284 196.39 74.2183C196.222 73.8081 195.976 73.4959 195.652 73.2817C195.328 73.063 194.934 72.9536 194.469 72.9536C194.005 72.9536 193.61 73.063 193.287 73.2817C192.963 73.4959 192.715 73.8081 192.542 74.2183C192.373 74.6284 192.289 75.1252 192.289 75.7085V75.7222C192.289 76.3009 192.373 76.7954 192.542 77.2056C192.715 77.6157 192.963 77.9302 193.287 78.1489C193.61 78.3677 194.005 78.4771 194.469 78.4771ZM199.713 79.3999V72.0308H200.902V73.1382H201.011C201.198 72.7463 201.467 72.4432 201.818 72.229C202.169 72.0103 202.616 71.9009 203.158 71.9009C203.987 71.9009 204.623 72.1379 205.065 72.6118C205.512 73.0812 205.735 73.7534 205.735 74.6284V79.3999H204.546V74.9155C204.546 74.2502 204.404 73.758 204.122 73.439C203.844 73.1154 203.411 72.9536 202.823 72.9536C202.431 72.9536 202.091 73.0379 201.804 73.2065C201.517 73.3752 201.294 73.6144 201.134 73.9243C200.979 74.2342 200.902 74.6056 200.902 75.0386V79.3999H199.713ZM121.892 95.3999L125.317 85.5356H127.074V87.5044H126.472L124.059 95.3999H121.892ZM123.724 93.0073L124.23 91.4624H128.79L129.296 93.0073H123.724ZM129.002 95.3999L126.595 87.5044V85.5356H127.744L131.175 95.3999H129.002ZM132.652 97.895V87.8735H134.648V89.0356H134.771C134.903 88.7668 135.076 88.5366 135.291 88.3452C135.509 88.1538 135.765 88.008 136.056 87.9077C136.348 87.8029 136.672 87.7505 137.027 87.7505C137.656 87.7505 138.198 87.9077 138.654 88.2222C139.11 88.5366 139.461 88.9832 139.707 89.562C139.957 90.1362 140.083 90.8244 140.083 91.6265V91.6401C140.083 92.4468 139.96 93.1395 139.714 93.7183C139.467 94.297 139.116 94.7414 138.661 95.0513C138.205 95.3612 137.66 95.5161 137.027 95.5161C136.681 95.5161 136.359 95.4637 136.063 95.3589C135.771 95.2495 135.514 95.0968 135.291 94.9009C135.072 94.7049 134.899 94.4702 134.771 94.1968H134.648V97.895H132.652ZM136.343 93.8618C136.699 93.8618 137.002 93.7729 137.253 93.5952C137.508 93.4175 137.704 93.1623 137.84 92.8296C137.982 92.4969 138.052 92.1004 138.052 91.6401V91.6265C138.052 91.1662 137.982 90.7697 137.84 90.437C137.704 90.1043 137.508 89.8491 137.253 89.6714C137.002 89.4937 136.699 89.4048 136.343 89.4048C135.992 89.4048 135.687 89.4937 135.427 89.6714C135.172 89.8491 134.974 90.1043 134.833 90.437C134.696 90.7651 134.628 91.1616 134.628 91.6265V91.6401C134.628 92.0959 134.698 92.4924 134.839 92.8296C134.981 93.1623 135.179 93.4175 135.434 93.5952C135.694 93.7729 135.997 93.8618 136.343 93.8618ZM141.716 97.895V87.8735H143.713V89.0356H143.836C143.968 88.7668 144.141 88.5366 144.355 88.3452C144.574 88.1538 144.829 88.008 145.121 87.9077C145.412 87.8029 145.736 87.7505 146.091 87.7505C146.72 87.7505 147.263 87.9077 147.718 88.2222C148.174 88.5366 148.525 88.9832 148.771 89.562C149.022 90.1362 149.147 90.8244 149.147 91.6265V91.6401C149.147 92.4468 149.024 93.1395 148.778 93.7183C148.532 94.297 148.181 94.7414 147.725 95.0513C147.269 95.3612 146.725 95.5161 146.091 95.5161C145.745 95.5161 145.424 95.4637 145.128 95.3589C144.836 95.2495 144.578 95.0968 144.355 94.9009C144.136 94.7049 143.963 94.4702 143.836 94.1968H143.713V97.895H141.716ZM145.408 93.8618C145.763 93.8618 146.066 93.7729 146.317 93.5952C146.572 93.4175 146.768 93.1623 146.905 92.8296C147.046 92.4969 147.117 92.1004 147.117 91.6401V91.6265C147.117 91.1662 147.046 90.7697 146.905 90.437C146.768 90.1043 146.572 89.8491 146.317 89.6714C146.066 89.4937 145.763 89.4048 145.408 89.4048C145.057 89.4048 144.752 89.4937 144.492 89.6714C144.237 89.8491 144.038 90.1043 143.897 90.437C143.76 90.7651 143.692 91.1616 143.692 91.6265V91.6401C143.692 92.0959 143.763 92.4924 143.904 92.8296C144.045 93.1623 144.243 93.4175 144.499 93.5952C144.758 93.7729 145.061 93.8618 145.408 93.8618ZM154.397 95.6528C153.613 95.6528 152.932 95.5343 152.353 95.2974C151.774 95.0604 151.319 94.7277 150.986 94.2993C150.658 93.8664 150.473 93.3582 150.432 92.7749L150.425 92.6655H152.415L152.422 92.7339C152.449 92.98 152.549 93.1965 152.722 93.3833C152.9 93.5656 153.137 93.7091 153.433 93.814C153.729 93.9188 154.069 93.9712 154.452 93.9712C154.821 93.9712 155.144 93.9165 155.422 93.8071C155.7 93.6978 155.917 93.5474 156.072 93.356C156.231 93.16 156.311 92.9367 156.311 92.686V92.6792C156.311 92.3556 156.179 92.0959 155.915 91.8999C155.655 91.7039 155.217 91.5422 154.602 91.4146L153.563 91.2026C152.538 90.993 151.793 90.6489 151.328 90.1704C150.863 89.6919 150.63 89.0789 150.63 88.3315V88.3247C150.63 87.714 150.792 87.1808 151.116 86.7251C151.439 86.2694 151.884 85.9162 152.449 85.6655C153.014 85.4103 153.661 85.2827 154.39 85.2827C155.156 85.2827 155.812 85.408 156.359 85.6587C156.91 85.9048 157.341 86.2443 157.651 86.6772C157.961 87.1056 158.136 87.5955 158.177 88.147L158.184 88.2358H156.243L156.229 88.1538C156.188 87.9168 156.088 87.7095 155.928 87.5317C155.773 87.354 155.564 87.215 155.299 87.1147C155.04 87.0099 154.737 86.9575 154.39 86.9575C154.053 86.9575 153.757 87.0076 153.502 87.1079C153.246 87.2082 153.048 87.3494 152.907 87.5317C152.766 87.7095 152.695 87.9214 152.695 88.1675V88.1743C152.695 88.4933 152.823 88.7554 153.078 88.9604C153.338 89.161 153.757 89.3205 154.336 89.439L155.381 89.6509C156.079 89.7922 156.646 89.9836 157.084 90.2251C157.526 90.4666 157.852 90.7697 158.061 91.1343C158.271 91.4989 158.376 91.9386 158.376 92.4536V92.4604C158.376 93.1121 158.214 93.6772 157.89 94.1558C157.571 94.6297 157.113 94.9989 156.516 95.2632C155.924 95.5229 155.217 95.6528 154.397 95.6528ZM163.256 95.4272C162.345 95.4272 161.689 95.2677 161.288 94.9487C160.887 94.6252 160.686 94.0988 160.686 93.3696V89.3774H159.524V87.8735H160.686V86.0757H162.703V87.8735H164.255V89.3774H162.703V92.9116C162.703 93.2489 162.778 93.4972 162.928 93.6567C163.083 93.8117 163.329 93.8892 163.667 93.8892C163.794 93.8892 163.899 93.8869 163.981 93.8823C164.068 93.8732 164.159 93.8641 164.255 93.855V95.3384C164.131 95.3612 163.983 95.3817 163.81 95.3999C163.637 95.4181 163.452 95.4272 163.256 95.4272ZM169.204 95.5571C168.434 95.5571 167.77 95.4022 167.214 95.0923C166.658 94.7778 166.232 94.3289 165.936 93.7456C165.64 93.1577 165.492 92.4559 165.492 91.6401V91.6265C165.492 90.8153 165.642 90.118 165.943 89.5347C166.244 88.9513 166.67 88.5024 167.221 88.188C167.777 87.869 168.438 87.7095 169.204 87.7095C169.969 87.7095 170.628 87.8667 171.179 88.1812C171.735 88.4956 172.164 88.9468 172.464 89.5347C172.765 90.118 172.916 90.8153 172.916 91.6265V91.6401C172.916 92.4559 172.768 93.1577 172.471 93.7456C172.175 94.3289 171.749 94.7778 171.193 95.0923C170.642 95.4022 169.978 95.5571 169.204 95.5571ZM169.204 93.9917C169.559 93.9917 169.86 93.8983 170.106 93.7114C170.352 93.5246 170.541 93.2557 170.673 92.9048C170.806 92.5539 170.872 92.1323 170.872 91.6401V91.6265C170.872 91.1343 170.806 90.715 170.673 90.3687C170.541 90.0177 170.35 89.7489 170.099 89.562C169.853 89.3706 169.555 89.2749 169.204 89.2749C168.853 89.2749 168.552 89.3706 168.301 89.562C168.055 89.7489 167.866 90.0177 167.734 90.3687C167.602 90.715 167.536 91.1343 167.536 91.6265V91.6401C167.536 92.1369 167.6 92.5607 167.727 92.9116C167.859 93.2625 168.048 93.5314 168.295 93.7183C168.545 93.9006 168.848 93.9917 169.204 93.9917ZM174.543 95.3999V87.8735H176.539V89.0425H176.662C176.785 88.6323 177.01 88.3156 177.339 88.0923C177.667 87.8644 178.075 87.7505 178.562 87.7505C178.699 87.7505 178.831 87.7596 178.959 87.7778C179.091 87.7961 179.207 87.8188 179.307 87.8462V89.5894C179.157 89.5529 179.004 89.5256 178.849 89.5073C178.699 89.4845 178.546 89.4731 178.391 89.4731C178.013 89.4731 177.685 89.5438 177.407 89.6851C177.129 89.8218 176.915 90.0177 176.764 90.2729C176.614 90.5282 176.539 90.8335 176.539 91.189V95.3999H174.543ZM183.785 95.5571C183.024 95.5571 182.367 95.3999 181.816 95.0854C181.269 94.7664 180.848 94.3153 180.551 93.7319C180.255 93.1486 180.107 92.4536 180.107 91.647V91.6401C180.107 90.8426 180.253 90.1499 180.545 89.562C180.841 88.9741 181.258 88.5184 181.796 88.1948C182.338 87.8713 182.974 87.7095 183.703 87.7095C184.436 87.7095 185.07 87.8667 185.603 88.1812C186.136 88.4956 186.547 88.9354 186.834 89.5005C187.121 90.0656 187.264 90.7287 187.264 91.4897V92.1118H181.105V90.8608H186.307L185.371 92.0435V91.2437C185.371 90.7925 185.3 90.4165 185.159 90.1157C185.022 89.8149 184.831 89.5894 184.585 89.439C184.343 89.284 184.061 89.2065 183.737 89.2065C183.418 89.2065 183.133 89.2863 182.882 89.4458C182.636 89.6007 182.44 89.8309 182.295 90.1362C182.153 90.437 182.083 90.8062 182.083 91.2437V92.0503C182.083 92.4741 182.153 92.8364 182.295 93.1372C182.436 93.438 182.636 93.6681 182.896 93.8276C183.156 93.9871 183.466 94.0669 183.826 94.0669C184.117 94.0669 184.366 94.0236 184.571 93.937C184.776 93.8504 184.94 93.7502 185.063 93.6362C185.191 93.5177 185.277 93.4106 185.323 93.3149L185.343 93.2739H187.203L187.189 93.3423C187.13 93.5793 187.023 93.8276 186.868 94.0874C186.713 94.3426 186.499 94.5819 186.225 94.8052C185.956 95.0285 185.619 95.2108 185.214 95.3521C184.812 95.4888 184.336 95.5571 183.785 95.5571Z" fill="white"/>
<path d="M91.964 76.0292C90.796 76.0292 88.988 74.7012 87.084 74.7492C84.572 74.7812 82.268 76.2052 80.972 78.4612C78.364 82.9892 80.3 89.6772 82.844 93.3572C84.092 95.1492 85.564 97.1652 87.516 97.1012C89.388 97.0212 90.092 95.8852 92.364 95.8852C94.62 95.8852 95.26 97.1012 97.244 97.0532C99.26 97.0212 100.54 95.2292 101.772 93.4212C103.196 91.3412 103.788 89.3252 103.82 89.2132C103.772 89.1972 99.9 87.7092 99.852 83.2292C99.82 79.4852 102.908 77.6932 103.052 77.6132C101.292 75.0372 98.588 74.7492 97.644 74.6852C95.18 74.4932 93.116 76.0292 91.964 76.0292ZM96.124 72.2532C97.164 71.0052 97.852 69.2612 97.66 67.5332C96.172 67.5972 94.38 68.5252 93.308 69.7732C92.348 70.8772 91.516 72.6532 91.74 74.3492C93.388 74.4772 95.084 73.5012 96.124 72.2532Z" fill="white"/>
<defs>
<filter id="filter0_d_26_128" x="2.28882e-05" y="-9.91821e-05" width="286.8" height="172.8" filterUnits="userSpaceOnUse" color-interpolation-filters="sRGB">
<feFlood flood-opacity="0" result="BackgroundImageFix"/>
<feColorMatrix in="SourceAlpha" type="matrix" values="0 0 0 0 0 0 0 0 0 0 0 0 0 0 0 0 0 0 127 0" result="hardAlpha"/>
<feOffset dy="4"/>
<feGaussianBlur stdDeviation="31.2"/>
<feComposite in2="hardAlpha" operator="out"/>
<feColorMatrix type="matrix" values="0 0 0 0 0 0 0 0 0 0 0 0 0 0 0 0 0 0 0.39 0"/>
<feBlend mode="normal" in2="BackgroundImageFix" result="effect1_dropShadow_26_128"/>
<feBlend mode="normal" in="SourceGraphic" in2="effect1_dropShadow_26_128" result="shape"/>
</filter>
</defs>
</svg>
