<svg width="724" height="257" viewBox="0 0 724 257" fill="none" xmlns="http://www.w3.org/2000/svg">
<path d="M68.7904 26.1034C87.0359 26.1034 102.98 29.663 116.623 36.7821C130.431 43.743 141.033 53.5516 148.429 66.2078C155.826 78.864 159.525 93.3395 159.525 109.634C159.525 125.771 155.744 140.167 148.183 152.824C140.786 165.48 130.184 175.447 116.377 182.724C102.734 189.843 86.8715 193.403 68.7904 193.403H0V26.1034H68.7904ZM65.092 152.586C79.2281 152.586 90.3233 148.869 98.3777 141.433C106.432 133.839 110.459 123.24 110.459 109.634C110.459 95.8707 106.432 85.2712 98.3777 77.8356C90.3233 70.2419 79.2281 66.4451 65.092 66.4451H48.3259V152.586H65.092Z" fill="url(#paint0_linear_26_6)"/>
<path d="M245.661 195.064C231.854 195.064 219.443 192.295 208.43 186.758C197.582 181.221 189.034 173.311 182.788 163.028C176.542 152.745 173.419 140.642 173.419 126.72C173.419 112.957 176.542 100.933 182.788 90.6501C189.199 80.3669 197.828 72.4567 208.677 66.9197C219.69 61.3826 232.1 58.614 245.908 58.614C259.715 58.614 272.043 61.3826 282.892 66.9197C293.905 72.4567 302.534 80.3669 308.78 90.6501C315.191 100.933 318.396 112.957 318.396 126.72C318.396 140.484 315.191 152.586 308.78 163.028C302.534 173.311 293.905 181.221 282.892 186.758C271.879 192.295 259.468 195.064 245.661 195.064ZM245.661 154.959C252.236 154.959 257.825 152.586 262.427 147.84C267.03 142.936 269.331 135.896 269.331 126.72C269.331 117.703 267.03 110.821 262.427 106.075C257.989 101.171 252.482 98.7184 245.908 98.7184C239.333 98.7184 233.826 101.171 229.388 106.075C224.95 110.821 222.731 117.703 222.731 126.72C222.731 135.896 224.868 142.936 229.141 147.84C233.415 152.586 238.922 154.959 245.661 154.959Z" fill="url(#paint1_linear_26_6)"/>
<path d="M386.383 78.7849C390.164 72.615 395.506 67.7107 402.41 64.072C409.314 60.4334 417.45 58.614 426.819 58.614C437.832 58.614 447.777 61.3826 456.653 66.9197C465.694 72.4567 472.762 80.3669 477.857 90.6501C483.117 100.933 485.747 112.957 485.747 126.72C485.747 140.484 483.117 152.586 477.857 163.028C472.762 173.311 465.694 181.221 456.653 186.758C447.777 192.295 437.832 195.064 426.819 195.064C417.45 195.064 409.314 193.244 402.41 189.606C395.671 185.967 390.328 181.063 386.383 174.893V257H338.058V60.2752H386.383V78.7849ZM436.682 126.72C436.682 118.019 434.216 111.295 429.285 106.549C424.518 101.645 418.601 99.193 411.533 99.193C404.465 99.193 398.465 101.645 393.534 106.549C388.767 111.454 386.383 118.177 386.383 126.72C386.383 135.421 388.767 142.224 393.534 147.128C398.465 152.033 404.465 154.485 411.533 154.485C418.601 154.485 424.518 152.033 429.285 147.128C434.216 142.066 436.682 135.263 436.682 126.72Z" fill="url(#paint2_linear_26_6)"/>
<path d="M530.051 47.9354C521.504 47.9354 514.6 45.7205 509.34 41.2909C504.245 36.703 501.697 31.0077 501.697 24.205C501.697 17.2441 504.245 11.4697 509.34 6.88182C514.6 2.29394 521.504 0 530.051 0C538.434 0 545.174 2.29394 550.269 6.88182C555.529 11.4697 558.159 17.2441 558.159 24.205C558.159 31.0077 555.529 36.703 550.269 41.2909C545.174 45.7205 538.434 47.9354 530.051 47.9354ZM553.968 60.2752V193.403H505.642V60.2752H553.968Z" fill="url(#paint3_linear_26_6)"/>
<path d="M671.976 59.0886C687.92 59.0886 700.577 64.2302 709.946 74.5134C719.315 84.6384 724 98.402 724 115.804V193.403H675.674V121.974C675.674 114.38 673.619 108.448 669.51 104.176C665.401 99.7467 659.894 97.5319 652.991 97.5319C645.758 97.5319 640.087 99.7467 635.978 104.176C631.868 108.448 629.814 114.38 629.814 121.974V193.403H581.488V60.2752H629.814V79.2595C634.088 73.2478 639.841 68.4226 647.073 64.7839C654.305 60.9871 662.606 59.0886 671.976 59.0886Z" fill="url(#paint4_linear_26_6)"/>
<defs>
<linearGradient id="paint0_linear_26_6" x1="74.3306" y1="23.3013" x2="178.237" y2="384.552" gradientUnits="userSpaceOnUse">
<stop stop-color="#EC30E4"/>
<stop offset="1" stop-color="#581DFF"/>
</linearGradient>
<linearGradient id="paint1_linear_26_6" x1="74.3306" y1="23.3013" x2="178.237" y2="384.552" gradientUnits="userSpaceOnUse">
<stop stop-color="#EC30E4"/>
<stop offset="1" stop-color="#581DFF"/>
</linearGradient>
<linearGradient id="paint2_linear_26_6" x1="74.3306" y1="23.3013" x2="178.237" y2="384.552" gradientUnits="userSpaceOnUse">
<stop stop-color="#EC30E4"/>
<stop offset="1" stop-color="#581DFF"/>
</linearGradient>
<linearGradient id="paint3_linear_26_6" x1="74.3306" y1="23.3013" x2="178.237" y2="384.552" gradientUnits="userSpaceOnUse">
<stop stop-color="#EC30E4"/>
<stop offset="1" stop-color="#581DFF"/>
</linearGradient>
<linearGradient id="paint4_linear_26_6" x1="74.3306" y1="23.3013" x2="178.237" y2="384.552" gradientUnits="userSpaceOnUse">
<stop stop-color="#EC30E4"/>
<stop offset="1" stop-color="#581DFF"/>
</linearGradient>
</defs>
</svg>
