<svg width="1920" height="414" viewBox="0 0 1920 414" fill="none" xmlns="http://www.w3.org/2000/svg">
<path d="M-51.1545 381.857C-46.3848 392.504 -41.6152 403.152 -36.8455 413.799C-3.63058 398.594 31.7968 382.886 65.8787 368.185C377.424 235.148 698.975 122.98 1030.97 55.5217C1197.3 23.1759 1366.32 0.881068 1535.25 16.9089C1698.9 29.2069 1885.19 111.027 1923.2 285.559C1932.55 321.815 1936.66 358.526 1937 397.828C1937.25 358.525 1933.72 321.698 1924.89 285.133C1889.77 108.981 1701.27 22.027 1536.3 7.34108C1365.91 -11.4674 1195.47 8.39079 1027.7 38.3305C692.778 101.023 368.338 208.606 52.9454 337.553C18.4302 351.804 -17.4594 367.077 -51.1545 381.857Z" fill="url(#paint0_linear_26_5)"/>
<defs>
<linearGradient id="paint0_linear_26_5" x1="159.383" y1="41.3694" x2="252.643" y2="623.014" gradientUnits="userSpaceOnUse">
<stop stop-color="#EC30E4"/>
<stop offset="1" stop-color="#581DFF"/>
</linearGradient>
</defs>
</svg>
