<svg width="402" height="394" viewBox="0 0 402 394" fill="none" xmlns="http://www.w3.org/2000/svg">
<path d="M-39.3685 378.894C-28.7445 383.715 -18.1205 388.536 -7.49651 393.357C-2.85021 382.408 2.22472 370.966 7.26703 359.991C53.8137 260.608 109.16 163.109 185.558 84.5157C223.794 46.6179 270.417 10.8408 324.727 9.66295C379.724 8.37662 424.938 51.4717 454.783 96.9803C461.786 107.544 467.679 117.353 473.999 128.906C468.197 117.084 462.804 106.97 456.263 96.045C428.459 49.2549 384.926 1.85576 324.864 0.0389248C265.684 -1.34928 214.888 34.6035 173.465 71.866C90.5858 149.535 29.8849 245.93 -22.6048 345.388C-28.3043 356.38 -34.0482 367.871 -39.3685 378.894Z" fill="url(#paint0_linear_26_90)"/>
<defs>
<linearGradient id="paint0_linear_26_90" x1="-53.8096" y1="202.209" x2="141.35" y2="410.763" gradientUnits="userSpaceOnUse">
<stop stop-color="#EC30E4"/>
<stop offset="1" stop-color="#581DFF"/>
</linearGradient>
</defs>
</svg>
