<svg width="120" height="140" viewBox="0 0 120 140" fill="none" xmlns="http://www.w3.org/2000/svg">
<g filter="url(#filter0_d_26_27)">
<path d="M59.5773 21.8C78.2321 21.8 93.3554 36.9226 93.3557 55.5773C93.3557 68.1225 86.5156 79.0692 76.3625 84.8947L43.0471 109.33L40.1848 83.2355C31.486 77.1249 25.8 67.0154 25.8 55.5773C25.8002 36.9227 40.9227 21.8002 59.5773 21.8Z" fill="white"/>
</g>
<circle cx="59.5779" cy="55.5777" r="28.3733" fill="url(#paint0_linear_26_27)"/>
<path d="M41.0274 47.9121C42.237 47.9121 43.2941 48.1337 44.1986 48.5769C45.114 49.0103 45.8169 49.6209 46.3073 50.4089C46.7977 51.1968 47.0429 52.098 47.0429 53.1125C47.0429 54.1171 46.7922 55.0134 46.291 55.8013C45.8006 56.5892 45.0977 57.2097 44.1822 57.6628C43.2777 58.106 42.2261 58.3276 41.0274 58.3276H36.4667V47.9121H41.0274ZM40.7822 55.7865C41.7194 55.7865 42.455 55.5551 42.989 55.0922C43.5229 54.6194 43.7899 53.9595 43.7899 53.1125C43.7899 52.2556 43.5229 51.5957 42.989 51.1328C42.455 50.66 41.7194 50.4236 40.7822 50.4236H39.6706V55.7865H40.7822Z" fill="white"/>
<path d="M52.7536 58.431C51.8382 58.431 51.0154 58.2587 50.2853 57.9139C49.566 57.5692 48.9993 57.0768 48.5852 56.4366C48.1711 55.7964 47.9641 55.0429 47.9641 54.1762C47.9641 53.3193 48.1711 52.5708 48.5852 51.9306C49.0102 51.2904 49.5824 50.7979 50.3016 50.4532C51.0318 50.1085 51.8545 49.9361 52.7699 49.9361C53.6853 49.9361 54.5027 50.1085 55.2219 50.4532C55.9521 50.7979 56.5242 51.2904 56.9383 51.9306C57.3633 52.5708 57.5758 53.3193 57.5758 54.1762C57.5758 55.0331 57.3633 55.7865 56.9383 56.4366C56.5242 57.0768 55.9521 57.5692 55.2219 57.9139C54.4918 58.2587 53.669 58.431 52.7536 58.431ZM52.7536 55.9343C53.1895 55.9343 53.56 55.7865 53.8652 55.4911C54.1703 55.1857 54.3229 54.7474 54.3229 54.1762C54.3229 53.6148 54.1703 53.1863 53.8652 52.8909C53.5709 52.5855 53.2058 52.4329 52.7699 52.4329C52.334 52.4329 51.969 52.5855 51.6747 52.8909C51.3805 53.1863 51.2334 53.6148 51.2334 54.1762C51.2334 54.7474 51.375 55.1857 51.6584 55.4911C51.9417 55.7865 52.3068 55.9343 52.7536 55.9343Z" fill="white"/>
<path d="M62.0833 51.1919C62.3339 50.8078 62.6881 50.5024 63.1458 50.2759C63.6035 50.0494 64.1429 49.9361 64.7641 49.9361C65.4942 49.9361 66.1536 50.1085 66.742 50.4532C67.3414 50.7979 67.81 51.2904 68.1478 51.9306C68.4966 52.5708 68.6709 53.3193 68.6709 54.1762C68.6709 55.0331 68.4966 55.7865 68.1478 56.4366C67.81 57.0768 67.3414 57.5692 66.742 57.9139C66.1536 58.2587 65.4942 58.431 64.7641 58.431C64.1429 58.431 63.6035 58.3178 63.1458 58.0912C62.699 57.8647 62.3448 57.5594 62.0833 57.1753V62.287H58.8793V50.0395H62.0833V51.1919ZM65.418 54.1762C65.418 53.6345 65.2545 53.2159 64.9276 52.9204C64.6115 52.6151 64.2192 52.4624 63.7506 52.4624C63.282 52.4624 62.8842 52.6151 62.5573 52.9204C62.2413 53.2257 62.0833 53.6443 62.0833 54.1762C62.0833 54.7179 62.2413 55.1414 62.5573 55.4467C62.8842 55.7521 63.282 55.9047 63.7506 55.9047C64.2192 55.9047 64.6115 55.7521 64.9276 55.4467C65.2545 55.1316 65.418 54.708 65.418 54.1762Z" fill="white"/>
<path d="M71.6082 49.2713C71.0415 49.2713 70.5838 49.1334 70.2351 48.8576C69.8973 48.572 69.7283 48.2174 69.7283 47.7939C69.7283 47.3605 69.8973 47.0011 70.2351 46.7154C70.5838 46.4298 71.0415 46.287 71.6082 46.287C72.164 46.287 72.6108 46.4298 72.9486 46.7154C73.2973 47.0011 73.4717 47.3605 73.4717 47.7939C73.4717 48.2174 73.2973 48.572 72.9486 48.8576C72.6108 49.1334 72.164 49.2713 71.6082 49.2713ZM73.1938 50.0395V58.3276H69.9899V50.0395H73.1938Z" fill="white"/>
<path d="M81.0176 49.9657C82.0746 49.9657 82.9137 50.2858 83.5349 50.926C84.1561 51.5563 84.4667 52.4132 84.4667 53.4966V58.3276H81.2627V53.8807C81.2627 53.4079 81.1265 53.0386 80.8541 52.7727C80.5816 52.4969 80.2166 52.359 79.7589 52.359C79.2794 52.359 78.9034 52.4969 78.631 52.7727C78.3585 53.0386 78.2223 53.4079 78.2223 53.8807V58.3276H75.0184V50.0395H78.2223V51.2214C78.5056 50.8472 78.887 50.5468 79.3665 50.3202C79.846 50.0838 80.3964 49.9657 81.0176 49.9657Z" fill="white"/>
<defs>
<filter id="filter0_d_26_27" x="-1.14441e-05" y="-1.14441e-05" width="119.156" height="139.13" filterUnits="userSpaceOnUse" color-interpolation-filters="sRGB">
<feFlood flood-opacity="0" result="BackgroundImageFix"/>
<feColorMatrix in="SourceAlpha" type="matrix" values="0 0 0 0 0 0 0 0 0 0 0 0 0 0 0 0 0 0 127 0" result="hardAlpha"/>
<feOffset dy="4"/>
<feGaussianBlur stdDeviation="12.9"/>
<feComposite in2="hardAlpha" operator="out"/>
<feColorMatrix type="matrix" values="0 0 0 0 0 0 0 0 0 0 0 0 0 0 0 0 0 0 0.25 0"/>
<feBlend mode="normal" in2="BackgroundImageFix" result="effect1_dropShadow_26_27"/>
<feBlend mode="normal" in="SourceGraphic" in2="effect1_dropShadow_26_27" result="shape"/>
</filter>
<linearGradient id="paint0_linear_26_27" x1="37.0305" y1="32.3494" x2="79.2746" y2="84.4842" gradientUnits="userSpaceOnUse">
<stop stop-color="#EC30E4"/>
<stop offset="1" stop-color="#581DFF"/>
</linearGradient>
</defs>
</svg>
